<svg xmlns="http://www.w3.org/2000/svg" width="18.852" height="18.852" viewBox="0 0 18.852 18.852">
  <g id="clock" transform="translate(0)">
    <path id="Path_136" data-name="Path 136" d="M9.426,0a9.426,9.426,0,1,0,9.426,9.426A9.436,9.436,0,0,0,9.426,0Zm0,16.867a7.441,7.441,0,1,1,7.441-7.441A7.45,7.45,0,0,1,9.426,16.867Z" fill="#798296"/>
    <path id="Path_137" data-name="Path 137" d="M164.084,72.943H160.4a1.628,1.628,0,0,0-.536-.536V67.982a.843.843,0,1,0-1.687,0v4.425A1.617,1.617,0,1,0,160.4,74.63h3.681a.843.843,0,0,0,0-1.687Z" transform="translate(-149.598 -63.808)" fill="#798296"/>
  </g>
</svg>
