<svg xmlns="http://www.w3.org/2000/svg" width="18.772" height="14.749" viewBox="0 0 18.772 14.749">
  <g id="envelope" transform="translate(0 -54.82)">
    <g id="Group_49" data-name="Group 49" transform="translate(0 54.82)">
      <path id="Path_111" data-name="Path 111" d="M1.8,59.366q.356.251,2.147,1.493t2.745,1.912q.1.073.445.32t.566.4q.225.152.545.34a3.16,3.16,0,0,0,.6.283,1.66,1.66,0,0,0,.524.094H9.4a1.661,1.661,0,0,0,.524-.094,3.163,3.163,0,0,0,.6-.283q.319-.189.545-.34t.566-.4q.34-.246.445-.32l4.9-3.4a4.976,4.976,0,0,0,1.278-1.288,2.766,2.766,0,0,0,.513-1.582A1.69,1.69,0,0,0,17.1,54.82H1.676a1.5,1.5,0,0,0-1.241.545A2.114,2.114,0,0,0,0,56.726a2.447,2.447,0,0,0,.576,1.43A5.2,5.2,0,0,0,1.8,59.366Z" transform="translate(0 -54.82)" fill="#6cb43f"/>
      <path id="Path_112" data-name="Path 112" d="M17.724,185.348q-3.436,2.325-5.217,3.614-.6.44-.969.686a5.981,5.981,0,0,1-.99.5,3.014,3.014,0,0,1-1.152.257H9.375a3.015,3.015,0,0,1-1.152-.257,5.984,5.984,0,0,1-.99-.5q-.372-.246-.969-.686-1.414-1.037-5.206-3.614A5.548,5.548,0,0,1,0,184.437v8.317a1.614,1.614,0,0,0,.492,1.184,1.614,1.614,0,0,0,1.184.492H17.1a1.681,1.681,0,0,0,1.676-1.676v-8.317A5.776,5.776,0,0,1,17.724,185.348Z" transform="translate(0 -179.681)" fill="#6cb43f"/>
    </g>
  </g>
</svg>
