<svg xmlns="http://www.w3.org/2000/svg" width="17.602" height="17.59" viewBox="0 0 17.602 17.59">
  <g id="phone-receiver_1_" data-name="phone-receiver (1)" transform="translate(0 -0.188)">
    <g id="Group_53" data-name="Group 53" transform="translate(0 0.188)">
      <path id="Path_113" data-name="Path 113" d="M17.593,14.07a.851.851,0,0,1-.261.745l-2.478,2.46a1.4,1.4,0,0,1-.438.317,1.809,1.809,0,0,1-.531.168q-.019,0-.112.009t-.242.009a8.59,8.59,0,0,1-1.146-.121,8.7,8.7,0,0,1-1.938-.6,16.266,16.266,0,0,1-2.6-1.425,19.381,19.381,0,0,1-3.093-2.609,20.419,20.419,0,0,1-2.162-2.46A17.525,17.525,0,0,1,1.214,8.4,11.692,11.692,0,0,1,.432,6.589a9.59,9.59,0,0,1-.354-1.4A4.615,4.615,0,0,1,0,4.269Q.022,3.933.022,3.9a1.811,1.811,0,0,1,.168-.531,1.4,1.4,0,0,1,.317-.438L2.984.449a.821.821,0,0,1,.6-.261.7.7,0,0,1,.429.14,1.3,1.3,0,0,1,.317.345L6.32,4.455a.907.907,0,0,1,.093.652,1.161,1.161,0,0,1-.317.6l-.913.913a.311.311,0,0,0-.065.121.46.46,0,0,0-.028.14,3.365,3.365,0,0,0,.335.894,8.21,8.21,0,0,0,.689,1.09,12.1,12.1,0,0,0,1.323,1.481,12.343,12.343,0,0,0,1.491,1.332,8.609,8.609,0,0,0,1.09.7,2.9,2.9,0,0,0,.671.27l.233.047a.444.444,0,0,0,.121-.028.311.311,0,0,0,.121-.065l1.062-1.081a1.142,1.142,0,0,1,.783-.3.974.974,0,0,1,.5.112h.019l3.6,2.124A.937.937,0,0,1,17.593,14.07Z" transform="translate(0 -0.188)" fill="#6cb43f"/>
    </g>
  </g>
</svg>
