<svg xmlns="http://www.w3.org/2000/svg" width="14.979" height="18.775" viewBox="0 0 14.979 18.775">
  <path id="Path_114" data-name="Path 114" d="M56.521,0a7.492,7.492,0,0,0-7.087,8.908h0s.012.081.05.235a7.507,7.507,0,0,0,.5,1.486,21.692,21.692,0,0,0,6.382,7.991.651.651,0,0,0,.831,0,21.67,21.67,0,0,0,6.386-8,7.189,7.189,0,0,0,.5-1.486c.035-.15.05-.235.05-.235h0A7.494,7.494,0,0,0,56.521,0Zm.266,11.21a3.638,3.638,0,1,1,3.638-3.638A3.637,3.637,0,0,1,56.787,11.214Z" transform="translate(-49.299 0)" fill="#6cb43f"/>
</svg>
